<svg width="17" height="16" viewBox="0 0 17 16" fill="none" xmlns="http://www.w3.org/2000/svg">
<path d="M12.8335 10H4.50012C4.26401 10 4.06595 9.92 3.90595 9.76C3.74595 9.6 3.66623 9.40222 3.66679 9.16667C3.66679 8.93056 3.74679 8.7325 3.90679 8.5725C4.06679 8.4125 4.26457 8.33278 4.50012 8.33333H12.8335C13.0696 8.33333 13.2676 8.41333 13.4276 8.57333C13.5876 8.73333 13.6673 8.93111 13.6668 9.16667C13.6668 9.40278 13.5868 9.60083 13.4268 9.76083C13.2668 9.92083 13.069 10.0006 12.8335 10ZM12.8335 7.5H4.50012C4.26401 7.5 4.06595 7.42 3.90595 7.26C3.74595 7.1 3.66623 6.90222 3.66679 6.66667C3.66679 6.43056 3.74679 6.2325 3.90679 6.0725C4.06679 5.9125 4.26457 5.83278 4.50012 5.83333H12.8335C13.0696 5.83333 13.2676 5.91333 13.4276 6.07333C13.5876 6.23333 13.6673 6.43111 13.6668 6.66667C13.6668 6.90278 13.5868 7.10084 13.4268 7.26083C13.2668 7.42083 13.069 7.50056 12.8335 7.5ZM12.8335 5H4.50012C4.26401 5 4.06595 4.92 3.90595 4.76C3.74595 4.6 3.66623 4.40222 3.66679 4.16667C3.66679 3.93056 3.74679 3.7325 3.90679 3.5725C4.06679 3.4125 4.26457 3.33278 4.50012 3.33333H12.8335C13.0696 3.33333 13.2676 3.41333 13.4276 3.57333C13.5876 3.73333 13.6673 3.93111 13.6668 4.16667C13.6668 4.40278 13.5868 4.60083 13.4268 4.76083C13.2668 4.92083 13.069 5.00056 12.8335 5ZM1.75012 15.25L3.66679 13.3333H15.3335C15.7918 13.3333 16.1843 13.17 16.511 12.8433C16.8376 12.5167 17.0007 12.1244 17.0001 11.6667V1.66667C17.0001 1.20833 16.8368 0.815835 16.5101 0.489168C16.1835 0.162501 15.7912 -0.000554141 15.3335 1.41483e-06H2.00012C1.54179 1.41483e-06 1.14929 0.163335 0.822621 0.490001C0.495954 0.816668 0.332899 1.20889 0.333454 1.66667V14.6458C0.333454 15.0208 0.503733 15.2814 0.844288 15.4275C1.18484 15.5736 1.48679 15.5144 1.75012 15.25Z" fill="#635FC7"/>
</svg>
