<svg width="25" height="25" viewBox="0 0 25 25" fill="none" xmlns="http://www.w3.org/2000/svg">
<path d="M7.47266 20.5C5.95266 20.5 4.65599 19.9767 3.58266 18.93C2.50932 17.8767 1.97266 16.5933 1.97266 15.08C1.97266 13.78 2.36266 12.62 3.14266 11.6C3.92932 10.58 4.95599 9.93 6.22266 9.65C6.64266 8.11667 7.47599 6.87667 8.72266 5.93C9.97599 4.97667 11.3927 4.5 12.9727 4.5C14.926 4.5 16.5793 5.18 17.9327 6.54C19.2927 7.89333 19.9727 9.54667 19.9727 11.5C21.126 11.6333 22.0793 12.1333 22.8327 13C23.5927 13.8533 23.9727 14.8533 23.9727 16C23.9727 17.2533 23.536 18.3167 22.6627 19.19C21.7893 20.0633 20.726 20.5 19.4727 20.5H13.9727C13.426 20.5 12.956 20.3033 12.5627 19.91C12.1693 19.5233 11.9727 19.0533 11.9727 18.5V13.35L10.3727 14.9L8.97266 13.5L12.9727 9.5L16.9727 13.5L15.5727 14.9L13.9727 13.35V18.5H19.4727C20.1727 18.5 20.7627 18.2567 21.2427 17.77C21.7293 17.29 21.9727 16.7 21.9727 16C21.9727 15.3 21.7293 14.71 21.2427 14.23C20.7627 13.7433 20.1727 13.5 19.4727 13.5H17.9727V11.5C17.9727 10.12 17.486 8.94 16.5127 7.96C15.5393 6.98667 14.3593 6.5 12.9727 6.5C11.5927 6.5 10.4127 6.98667 9.43266 7.96C8.45932 8.94 7.97266 10.12 7.97266 11.5H7.47266C6.50599 11.5 5.68266 11.8433 5.00266 12.53C4.31599 13.21 3.97266 14.0333 3.97266 15C3.97266 15.9667 4.31599 16.8 5.00266 17.5C5.68266 18.1667 6.50599 18.5 7.47266 18.5H9.97266V20.5" fill="#3E3F4E"/>
</svg>
