<svg width="16" height="16" viewBox="0 0 16 16" fill="none" xmlns="http://www.w3.org/2000/svg">
<path fill-rule="evenodd" clip-rule="evenodd" d="M14.9084 10.1045C15.3159 9.92139 15.8017 10.2724 15.6317 10.6845C14.4717 13.5079 11.6884 15.4962 8.43844 15.4962C4.14592 15.4962 0.666748 12.0275 0.666748 7.74831C0.666748 4.14569 3.13342 1.11707 6.47425 0.249687C6.90758 0.137767 7.19175 0.663454 6.95508 1.0433C6.33663 2.03444 6.00881 3.18449 6.01008 4.35851C6.01008 7.83565 8.83675 10.654 12.3242 10.654C13.2137 10.6555 14.0938 10.4684 14.9084 10.1045ZM10.5017 1.00684C10.2075 0.557465 10.7342 0.0215992 11.1759 0.32175L11.9634 0.855916C12.2827 1.0726 12.6579 1.18825 13.0417 1.18825C13.4255 1.18825 13.8007 1.0726 14.12 0.855916L14.9067 0.32175C15.3492 0.0215992 15.8759 0.557465 15.5809 1.00684L15.0559 1.80808C14.8429 2.13297 14.7292 2.51473 14.7292 2.90525C14.7292 3.29576 14.8429 3.67753 15.0559 4.00241L15.5809 4.80366C15.8759 5.25304 15.3492 5.78889 14.9075 5.48874L14.12 4.95458C13.8007 4.73789 13.4255 4.62226 13.0417 4.62226C12.6579 4.62226 12.2827 4.73789 11.9634 4.95458L11.1767 5.48874C10.735 5.78889 10.2075 5.25304 10.5017 4.80366L11.0267 4.00241C11.2397 3.67753 11.3533 3.29576 11.3533 2.90525C11.3533 2.51473 11.2397 2.13297 11.0267 1.80808L10.5017 1.00684Z" fill="#828FA3"/>
</svg>
