<svg width="20" height="16" viewBox="0 0 20 16" fill="none" xmlns="http://www.w3.org/2000/svg">
<path d="M2 0C1.46957 0 0.960859 0.210714 0.585786 0.585786C0.210714 0.960859 0 1.46957 0 2V14C0 14.5304 0.210714 15.0391 0.585786 15.4142C0.960859 15.7893 1.46957 16 2 16H14C14.5304 16 15.0391 15.7893 15.4142 15.4142C15.7893 15.0391 16 14.5304 16 14V11.79L18.094 13.08C18.2832 13.1967 18.5002 13.2608 18.7224 13.2657C18.9447 13.2706 19.1642 13.2161 19.3584 13.1079C19.5526 12.9997 19.7144 12.8417 19.8272 12.6501C19.94 12.4585 19.9996 12.2403 20 12.018V3.984C20.0002 3.76144 19.9409 3.54286 19.8284 3.35086C19.7158 3.15885 19.554 3.00039 19.3597 2.89182C19.1654 2.78326 18.9457 2.72854 18.7232 2.73332C18.5007 2.7381 18.2835 2.8022 18.094 2.919L16 4.21V2C16 1.46957 15.7893 0.960859 15.4142 0.585786C15.0391 0.210714 14.5304 0 14 0H2Z" fill="#8471F2"/>
</svg>
