<svg width="16" height="17" viewBox="0 0 16 17" fill="none" xmlns="http://www.w3.org/2000/svg">
<path fill-rule="evenodd" clip-rule="evenodd" d="M0.846133 1.49665C0.304363 2.04787 0 2.79551 0 3.57506V13.9758C0 14.7553 0.304363 15.5029 0.846133 16.0541C1.3879 16.6054 2.12271 16.915 2.88889 16.915H13.1111C13.8773 16.915 14.6121 16.6054 15.1538 16.0541C15.6957 15.5029 16 14.7553 16 13.9758V3.57506C16 2.79551 15.6957 2.04787 15.1538 1.49665C14.6121 0.945418 13.8773 0.635742 13.1111 0.635742H2.88889C2.12271 0.635742 1.3879 0.945418 0.846133 1.49665ZM1.33333 13.9758V9.22763H9.77781V15.5584H2.88889C2.03022 15.5584 1.33333 14.8494 1.33333 13.9758ZM9.77781 7.87099V1.99235H2.88889C2.47633 1.99235 2.08067 2.1591 1.78895 2.45592C1.49723 2.75273 1.33333 3.1553 1.33333 3.57506V7.87099H9.77781ZM11.1111 6.51438H14.6667V11.0364H11.1111V6.51438ZM14.6667 12.393H11.1111V15.5584H13.1111C13.5236 15.5584 13.9194 15.3917 14.2111 15.0949C14.5028 14.7981 14.6667 14.3954 14.6667 13.9758V12.393ZM14.6667 3.57506V5.15777H11.1111V1.99235H13.1111C13.5236 1.99235 13.9194 2.1591 14.2111 2.45592C14.5028 2.75273 14.6667 3.1553 14.6667 3.57506Z" fill="white"/>
</svg>
