<svg width="20" height="21" viewBox="0 0 20 21" fill="none" xmlns="http://www.w3.org/2000/svg">
<path d="M10 0.75C8.07164 0.75 6.18657 1.32183 4.58319 2.39317C2.97982 3.46452 1.73013 4.98726 0.992179 6.76884C0.254225 8.55042 0.061142 10.5108 0.437348 12.4021C0.813554 14.2934 1.74215 16.0307 3.10571 17.3943C4.46928 18.7579 6.20656 19.6865 8.09787 20.0627C9.98919 20.4389 11.9496 20.2458 13.7312 19.5078C15.5127 18.7699 17.0355 17.5202 18.1068 15.9168C19.1782 14.3134 19.75 12.4284 19.75 10.5C19.7473 7.91498 18.7192 5.43661 16.8913 3.60872C15.0634 1.78084 12.585 0.75273 10 0.75ZM18.2172 9.76688C17.9784 9.75563 17.7394 9.75 17.5 9.75C16.1088 9.75039 14.7237 9.93448 13.3806 10.2975C13.0532 9.32585 12.6309 8.38883 12.1197 7.5C13.4528 6.69611 14.6596 5.69938 15.7009 4.54219C17.1459 5.92075 18.0402 7.77769 18.2172 9.76688ZM14.5263 3.60562C13.5895 4.63498 12.5067 5.5213 11.3125 6.23625C10.3124 4.82852 9.08908 3.59352 7.69094 2.58C8.83791 2.24517 10.0439 2.16347 11.2256 2.34056C12.4072 2.51764 13.5363 2.94928 14.5347 3.60562H14.5263ZM6.02969 3.27C7.56212 4.23506 8.89812 5.48135 9.96719 6.94312C8.09615 7.80548 6.06021 8.25138 4 8.25C3.36416 8.24967 2.72903 8.20739 2.09875 8.12344C2.7259 6.05485 4.13652 4.3132 6.02969 3.27ZM1.75 10.5C1.74997 10.1981 1.76655 9.89636 1.79969 9.59625C2.52866 9.6986 3.26388 9.74997 4 9.75C6.3527 9.75222 8.67595 9.22683 10.7988 8.2125C11.2664 9.02015 11.653 9.87211 11.9528 10.7559C11.1561 11.0552 10.3851 11.4189 9.6475 11.8434C7.58976 13.0322 5.82537 14.6681 4.48469 16.6303C3.62375 15.858 2.93524 14.9129 2.46405 13.8566C1.99285 12.8003 1.74955 11.6566 1.75 10.5ZM5.6875 17.5312C6.90472 15.731 8.51531 14.231 10.3975 13.1447C11.0268 12.7815 11.6835 12.4681 12.3616 12.2072C12.5936 13.237 12.7109 14.2894 12.7113 15.345C12.7118 16.3713 12.6021 17.3946 12.3841 18.3975C11.27 18.7341 10.0972 18.8309 8.94301 18.6816C7.7888 18.5323 6.67929 18.1402 5.6875 17.5312ZM14.0369 17.6934C14.1526 16.9175 14.2109 16.1342 14.2113 15.3497C14.2111 14.1355 14.0711 12.9253 13.7941 11.7431C15.0024 11.417 16.2484 11.2512 17.5 11.25C17.7375 11.25 17.9753 11.2559 18.2134 11.2678C18.0879 12.5964 17.6424 13.8748 16.915 14.9936C16.1877 16.1125 15.2001 17.0385 14.0369 17.6925V17.6934Z" fill="#49C4E5"/>
</svg>
