<svg width="18" height="17" viewBox="0 0 18 17" fill="none" xmlns="http://www.w3.org/2000/svg">
<path fill-rule="evenodd" clip-rule="evenodd" d="M17.7923 9.44767C16.7538 11.2407 15.1854 12.6826 13.3062 13.5649L14.8099 15.7506C14.9286 15.9232 14.8874 16.1611 14.7177 16.2819L14.0697 16.7435C13.9 16.8643 13.6662 16.8223 13.5474 16.6497L3.19013 1.59515C3.07135 1.42253 3.11263 1.18461 3.28229 1.06379L3.93032 0.602212C4.09998 0.481358 4.33382 0.523359 4.45257 0.695977L6.18775 3.21815C7.08163 2.96058 8.02525 2.82249 9 2.82249C12.7456 2.82249 16.0311 4.85721 17.7923 7.89803C18.0692 8.37616 18.0692 8.96954 17.7923 9.44767ZM1.50001 8.67285C2.99714 11.2578 5.79513 12.997 9 12.997C9.07946 12.9969 9.15892 12.9958 9.23834 12.9935L10.239 14.448C9.82784 14.4981 9.4141 14.5232 9 14.5232C5.25438 14.5232 1.96889 12.4885 0.207702 9.44771C-0.069234 8.96957 -0.069234 8.37616 0.207702 7.89803C0.997544 6.53432 2.09379 5.37356 3.4001 4.50762L4.26076 5.75854C3.12813 6.49989 2.17986 7.49906 1.50001 8.67285ZM8.52194 11.9522C6.00685 11.6657 4.26532 9.18962 4.86788 6.64103L8.52194 11.9522ZM9.74494 4.38024C12.6351 4.62624 15.1201 6.29032 16.5 8.67285C15.5721 10.2749 14.1446 11.552 12.4302 12.2916L11.596 11.079C13.2731 9.76083 13.7072 7.4403 12.75 5.61915L12.75 5.62049C12.75 6.60386 11.9665 7.40103 11 7.40103C10.0335 7.40103 9.25 6.60386 9.25 5.62049C9.25 5.13815 9.43881 4.7009 9.74494 4.38024Z" fill="#828FA3"/>
</svg>
