<svg width="20" height="21" viewBox="0 0 20 21" fill="none" xmlns="http://www.w3.org/2000/svg">
<g clip-path="url(#clip0_39_22566)">
<path d="M12.5002 18.8337V17.167H15.8335V8.83366H4.16683V12.167H2.50016V5.50033C2.50016 5.04199 2.6635 4.64949 2.99016 4.32283C3.31683 3.99616 3.70905 3.8331 4.16683 3.83366H5.00016V2.16699H6.66683V3.83366H13.3335V2.16699H15.0002V3.83366H15.8335C16.2918 3.83366 16.6843 3.99699 17.011 4.32366C17.3377 4.65033 17.5007 5.04255 17.5002 5.50033V17.167C17.5002 17.6253 17.3368 18.0178 17.0102 18.3445C16.6835 18.6712 16.2913 18.8342 15.8335 18.8337H12.5002ZM6.66683 20.5003L5.50016 19.3337L7.646 17.167H0.833496V15.5003H7.646L5.50016 13.3337L6.66683 12.167L10.8335 16.3337L6.66683 20.5003Z" fill="#67E2AE"/>
</g>
<defs>
<clipPath id="clip0_39_22566">
<rect width="20" height="20" fill="white" transform="translate(0 0.5)"/>
</clipPath>
</defs>
</svg>
