<svg width="25" height="24" viewBox="0 0 25 24" fill="none" xmlns="http://www.w3.org/2000/svg">
<path d="M12.3862 20C12.4982 20 12.4982 14.667 12.3862 4C10.2645 4 8.22967 4.84285 6.72938 6.34315C5.22909 7.84344 4.38623 9.87827 4.38623 12C4.38623 14.1217 5.22909 16.1566 6.72938 17.6569C8.22967 19.1571 10.2645 20 12.3862 20ZM12.3862 22C6.86323 22 2.38623 17.523 2.38623 12C2.38623 6.477 6.86323 2 12.3862 2C17.9092 2 22.3862 6.477 22.3862 12C22.3862 17.523 17.9092 22 12.3862 22Z" fill="#635FC7"/>
</svg>
