<svg width="19" height="20" viewBox="0 0 19 20" fill="none" xmlns="http://www.w3.org/2000/svg">
<path fill-rule="evenodd" clip-rule="evenodd" d="M9.75589 0.787399C9.59969 0.628391 9.38769 0.539062 9.16667 0.539062C8.94566 0.539062 8.73369 0.628391 8.57741 0.787399C8.42113 0.946403 8.33334 1.16206 8.33334 1.38692V2.23478C8.33334 2.45965 8.42113 2.6753 8.57741 2.83431C8.73369 2.99331 8.94566 3.08264 9.16667 3.08264C9.38769 3.08264 9.59969 2.99331 9.75589 2.83431C9.91219 2.6753 9.99999 2.45965 9.99999 2.23478V1.38692C9.99999 1.16206 9.91219 0.946403 9.75589 0.787399ZM2.5 2.23499C2.27903 2.23499 2.06711 2.32429 1.91084 2.48323C1.75461 2.64222 1.66685 2.85785 1.66685 3.08267C1.66685 3.30749 1.75461 3.5231 1.91084 3.6821L3.16084 4.95389C3.318 5.10833 3.52851 5.1938 3.747 5.19186C3.9655 5.18993 4.17451 5.10076 4.32902 4.94356C4.48352 4.78637 4.57117 4.57371 4.57306 4.3514C4.57496 4.1291 4.49097 3.91493 4.33917 3.75502L3.08917 2.48323C2.9329 2.32429 2.72097 2.23499 2.5 2.23499ZM16.6665 3.08268C16.6665 2.85785 16.5787 2.64223 16.4225 2.48323C16.2662 2.32429 16.0543 2.23499 15.8333 2.23499C15.6124 2.23499 15.4005 2.32429 15.2442 2.48323L13.9942 3.75504C13.9146 3.83325 13.8511 3.92681 13.8074 4.03025C13.7638 4.1337 13.7408 4.24495 13.7398 4.35753C13.7388 4.47011 13.7599 4.58176 13.8018 4.68596C13.8437 4.79016 13.9056 4.88482 13.9838 4.96443C14.0621 5.04404 14.1551 5.107 14.2576 5.14963C14.36 5.19227 14.4697 5.21371 14.5803 5.21274C14.691 5.21176 14.8003 5.18837 14.902 5.14394C15.0037 5.0995 15.0956 5.03491 15.1725 4.95392L16.4225 3.68212C16.5787 3.52312 16.6665 3.3075 16.6665 3.08268ZM0.244077 9.26616C0.0877971 9.42516 0 9.64081 0 9.86567C0 10.0905 0.0877971 10.3062 0.244077 10.4651C0.400357 10.6242 0.612318 10.7135 0.833338 10.7135H1.66667C1.88768 10.7135 2.09964 10.6242 2.25593 10.4651C2.41221 10.3062 2.5 10.0905 2.5 9.86567C2.5 9.64081 2.41221 9.42516 2.25593 9.26616C2.09964 9.10715 1.88768 9.01782 1.66667 9.01782H0.833338C0.612318 9.01782 0.400357 9.10715 0.244077 9.26616ZM16.0774 9.26616C15.9211 9.42516 15.8333 9.64081 15.8333 9.86567C15.8333 10.0905 15.9211 10.3062 16.0774 10.4651C16.2337 10.6242 16.4457 10.7135 16.6667 10.7135H17.5C17.721 10.7135 17.933 10.6242 18.0893 10.4651C18.2455 10.3062 18.3333 10.0905 18.3333 9.86567C18.3333 9.64081 18.2455 9.42516 18.0893 9.26616C17.933 9.10715 17.721 9.01782 17.5 9.01782H16.6667C16.4457 9.01782 16.2337 9.10715 16.0774 9.26616ZM4.58316 15.3769C4.58316 15.1521 4.49539 14.9365 4.33917 14.7774C4.1829 14.6185 3.97097 14.5292 3.75 14.5292C3.52903 14.5292 3.31711 14.6185 3.16084 14.7774L1.91083 16.0493C1.75903 16.2092 1.67503 16.4234 1.67693 16.6457C1.67883 16.8681 1.76647 17.0807 1.92098 17.2379C2.07549 17.3951 2.2845 17.4842 2.503 17.4862C2.7215 17.4881 2.932 17.4026 3.08917 17.2482L4.33917 15.9763C4.49539 15.8174 4.58316 15.6017 4.58316 15.3769ZM14.5833 14.5292C14.3624 14.5292 14.1505 14.6185 13.9942 14.7774C13.838 14.9365 13.7502 15.1521 13.7502 15.3769C13.7502 15.6017 13.838 15.8174 13.9942 15.9763L15.2442 17.2482C15.4013 17.4026 15.6118 17.4881 15.8303 17.4862C16.0488 17.4842 16.2579 17.3951 16.4124 17.2379C16.5669 17.0807 16.6545 16.8681 16.6564 16.6457C16.6583 16.4234 16.5743 16.2092 16.4225 16.0493L15.1725 14.7774C15.0162 14.6185 14.8043 14.5292 14.5833 14.5292ZM9.75589 16.8971C9.59968 16.7381 9.38768 16.6488 9.16667 16.6488C8.94566 16.6488 8.73369 16.7381 8.57741 16.8971C8.42113 17.0561 8.33334 17.2718 8.33334 17.4966V18.3445C8.33334 18.5693 8.42113 18.785 8.57741 18.944C8.73369 19.1031 8.94566 19.1924 9.16667 19.1924C9.38768 19.1924 9.59968 19.1031 9.75589 18.944C9.91218 18.785 9.99998 18.5693 9.99998 18.3445V17.4966C9.99998 17.2718 9.91218 17.0561 9.75589 16.8971ZM6.22039 6.86802C7.00179 6.07299 8.0616 5.62634 9.16667 5.62634C10.2717 5.62634 11.3316 6.07299 12.113 6.86802C12.8944 7.66306 13.3333 8.74136 13.3333 9.8657C13.3333 10.9901 12.8944 12.0684 12.113 12.8634C11.3316 13.6584 10.2717 14.1051 9.16667 14.1051C8.0616 14.1051 7.00179 13.6584 6.22039 12.8634C5.43899 12.0684 5 10.9901 5 9.8657C5 8.74136 5.43899 7.66306 6.22039 6.86802Z" fill="#828FA3"/>
</svg>
