<svg width="18" height="19" viewBox="0 0 18 19" fill="none" xmlns="http://www.w3.org/2000/svg">
<path d="M11.3529 5.49658V3.46167C11.3529 2.92198 11.1546 2.40439 10.8016 2.02277C10.4486 1.64115 9.96982 1.42676 9.47059 1.42676H2.88235C2.38312 1.42676 1.90434 1.64115 1.55133 2.02277C1.19832 2.40439 1 2.92198 1 3.46167V15.6711C1 16.2108 1.19832 16.7284 1.55133 17.11C1.90434 17.4917 2.38312 17.7061 2.88235 17.7061H9.47059C9.96982 17.7061 10.4486 17.4917 10.8016 17.11C11.1546 16.7284 11.3529 16.2108 11.3529 15.6711V13.6362" stroke="#828FA3" stroke-width="2" stroke-linecap="round" stroke-linejoin="round"/>
<path d="M16.9999 9.56604H4.76465M4.76465 9.56604L7.58818 6.51367M4.76465 9.56604L7.58818 12.6184" stroke="#828FA3" stroke-width="2" stroke-linecap="round" stroke-linejoin="round"/>
</svg>
