<svg width="42" height="42" viewBox="0 0 42 42" fill="none" xmlns="http://www.w3.org/2000/svg">
<g id="mdi:bell-notification">
<path id="Vector" d="M36.75 11.375C36.75 14.7525 34.0025 17.5 30.625 17.5C27.2475 17.5 24.5 14.7525 24.5 11.375C24.5 7.99751 27.2475 5.25001 30.625 5.25001C34.0025 5.25001 36.75 7.99751 36.75 11.375ZM33.25 20.6325C32.375 20.86 31.5 21 30.625 21C28.0737 20.9954 25.6282 19.9798 23.8242 18.1758C22.0202 16.3718 21.0046 13.9263 21 11.375C21 8.80251 22.015 6.47501 23.625 4.74251C23.3074 4.35321 22.907 4.03966 22.4529 3.82471C21.9988 3.60977 21.5024 3.49884 21 3.50001C19.075 3.50001 17.5 5.07501 17.5 7.00001V7.50751C12.3025 9.04751 8.75 13.825 8.75 19.25V29.75L5.25 33.25V35H36.75V33.25L33.25 29.75V20.6325ZM21 40.25C22.9425 40.25 24.5 38.6925 24.5 36.75H17.5C17.5 37.6783 17.8687 38.5685 18.5251 39.2249C19.1815 39.8813 20.0717 40.25 21 40.25Z" fill="#3E3F4E"/>
</g>
</svg>
