<svg width="19" height="19" viewBox="0 0 19 19" fill="none" xmlns="http://www.w3.org/2000/svg">
<path d="M14.2923 6.89502H15.9538C16.3945 6.89502 16.8171 7.06653 17.1287 7.37183C17.4403 7.67713 17.6154 8.0912 17.6154 8.52295V17.4766L14.2923 14.2207H9.30769C8.86703 14.2207 8.44441 14.0492 8.13281 13.7439C7.82121 13.4386 7.64615 13.0245 7.64615 12.5928V11.7788M10.9692 6.89502C10.9692 7.32677 10.7942 7.74084 10.4826 8.04614C10.171 8.35144 9.74836 8.52295 9.30769 8.52295H4.32308L1 11.7788V2.8252C1 1.92983 1.74769 1.19727 2.66154 1.19727H9.30769C9.74836 1.19727 10.171 1.36878 10.4826 1.67408C10.7942 1.97937 10.9692 2.39344 10.9692 2.8252V6.89502Z" stroke="#828FA3" stroke-width="2" stroke-linecap="round" stroke-linejoin="round"/>
</svg>
