<svg width="32" height="38" viewBox="0 0 32 38" fill="none" xmlns="http://www.w3.org/2000/svg">
<path d="M31.75 8.37501C31.75 11.7525 29.0025 14.5 25.625 14.5C22.2475 14.5 19.5 11.7525 19.5 8.37501C19.5 4.99751 22.2475 2.25001 25.625 2.25001C29.0025 2.25001 31.75 4.99751 31.75 8.37501ZM28.25 17.6325C27.375 17.86 26.5 18 25.625 18C23.0737 17.9954 20.6282 16.9798 18.8242 15.1758C17.0202 13.3718 16.0046 10.9263 16 8.37501C16 5.80251 17.015 3.47501 18.625 1.74251C18.3074 1.35321 17.907 1.03966 17.4529 0.824711C16.9988 0.609765 16.5024 0.498837 16 0.500009C14.075 0.500009 12.5 2.07501 12.5 4.00001V4.50751C7.3025 6.04751 3.75 10.825 3.75 16.25V26.75L0.25 30.25V32H31.75V30.25L28.25 26.75V17.6325ZM16 37.25C17.9425 37.25 19.5 35.6925 19.5 33.75H12.5C12.5 34.6783 12.8687 35.5685 13.5251 36.2249C14.1815 36.8813 15.0717 37.25 16 37.25Z" fill="#3E3F4E"/>
</svg>
