<svg width="16" height="17" viewBox="0 0 16 17" fill="none" xmlns="http://www.w3.org/2000/svg">
<path d="M0 3.90031C0 3.00082 0.351189 2.13818 0.976311 1.50214C1.60143 0.866109 2.44928 0.508789 3.33333 0.508789H12.6667C13.5507 0.508789 14.3986 0.866109 15.0237 1.50214C15.6488 2.13818 16 3.00082 16 3.90031V13.3966C16 14.2961 15.6488 15.1587 15.0237 15.7947C14.3986 16.4308 13.5507 16.7881 12.6667 16.7881H3.33333C2.44928 16.7881 1.60143 16.4308 0.976311 15.7947C0.351189 15.1587 0 14.2961 0 13.3966V3.90031ZM3.33333 1.8654C2.8029 1.8654 2.29419 2.07979 1.91912 2.46141C1.54405 2.84303 1.33333 3.36062 1.33333 3.90031V13.3966C1.33333 13.9363 1.54405 14.4538 1.91912 14.8355C2.29419 15.2171 2.8029 15.4315 3.33333 15.4315H12.6667C13.1971 15.4315 13.7058 15.2171 14.0809 14.8355C14.456 14.4538 14.6667 13.9363 14.6667 13.3966V3.90031C14.6667 3.36062 14.456 2.84303 14.0809 2.46141C13.7058 2.07979 13.1971 1.8654 12.6667 1.8654H3.33333ZM8.66667 12.04C8.66667 11.8601 8.7369 11.6875 8.86193 11.5603C8.98695 11.4331 9.15652 11.3617 9.33333 11.3617H12.3333C12.5101 11.3617 12.6797 11.4331 12.8047 11.5603C12.9298 11.6875 13 11.8601 13 12.04C13 12.2199 12.9298 12.3924 12.8047 12.5196C12.6797 12.6468 12.5101 12.7183 12.3333 12.7183H9.33333C9.15652 12.7183 8.98695 12.6468 8.86193 12.5196C8.7369 12.3924 8.66667 12.2199 8.66667 12.04ZM9.33333 5.93522C9.15652 5.93522 8.98695 6.00669 8.86193 6.13389C8.7369 6.2611 8.66667 6.43363 8.66667 6.61353C8.66667 6.79342 8.7369 6.96595 8.86193 7.09316C8.98695 7.22037 9.15652 7.29183 9.33333 7.29183H12.3333C12.5101 7.29183 12.6797 7.22037 12.8047 7.09316C12.9298 6.96595 13 6.79342 13 6.61353C13 6.43363 12.9298 6.2611 12.8047 6.13389C12.6797 6.00669 12.5101 5.93522 12.3333 5.93522H9.33333ZM7.13867 10.2031C7.20075 10.2661 7.25001 10.341 7.28362 10.4234C7.31723 10.5058 7.33453 10.5941 7.33453 10.6833C7.33453 10.7726 7.31723 10.8609 7.28362 10.9433C7.25001 11.0257 7.20075 11.1006 7.13867 11.1636L5.13867 13.1985C5.07674 13.2617 5.00317 13.3118 4.92218 13.346C4.84118 13.3802 4.75436 13.3978 4.66667 13.3978C4.57898 13.3978 4.49215 13.3802 4.41116 13.346C4.33016 13.3118 4.25659 13.2617 4.19467 13.1985L3.19733 12.1838C3.13535 12.1207 3.08618 12.0458 3.05264 11.9634C3.01909 11.881 3.00182 11.7927 3.00182 11.7035C3.00182 11.6143 3.01909 11.526 3.05264 11.4436C3.08618 11.3612 3.13535 11.2863 3.19733 11.2233C3.32252 11.0959 3.4923 11.0244 3.66933 11.0244C3.75699 11.0244 3.84379 11.0419 3.92478 11.0761C4.00576 11.1102 4.07935 11.1602 4.14133 11.2233L4.66667 11.7591L6.19467 10.2031C6.25659 10.1399 6.33016 10.0898 6.41116 10.0556C6.49215 10.0214 6.57898 10.0038 6.66667 10.0038C6.75436 10.0038 6.84118 10.0214 6.92218 10.0556C7.00317 10.0898 7.07674 10.1399 7.13867 10.2031ZM7.13867 5.73716C7.20065 5.67409 7.24982 5.59922 7.28336 5.51682C7.31691 5.43442 7.33418 5.34611 7.33418 5.25692C7.33418 5.16773 7.31691 5.07941 7.28336 4.99701C7.24982 4.91461 7.20065 4.83974 7.13867 4.77668C7.07668 4.71361 7.0031 4.66359 6.92211 4.62945C6.84113 4.59532 6.75433 4.57776 6.66667 4.57776C6.57901 4.57776 6.49221 4.59532 6.41122 4.62945C6.33024 4.66359 6.25665 4.71361 6.19467 4.77668L4.66667 6.33271L4.14133 5.79685C4.01615 5.66948 3.84637 5.59793 3.66933 5.59793C3.4923 5.59793 3.32252 5.66948 3.19733 5.79685C3.07215 5.92421 3.00182 6.09696 3.00182 6.27709C3.00182 6.45721 3.07215 6.62996 3.19733 6.75733L4.19467 7.77207C4.25659 7.83524 4.33016 7.88535 4.41116 7.91955C4.49215 7.95374 4.57898 7.97135 4.66667 7.97135C4.75436 7.97135 4.84118 7.95374 4.92218 7.91955C5.00317 7.88535 5.07674 7.83524 5.13867 7.77207L7.13867 5.73716Z" fill="#828FA3"/>
</svg>
