<svg width="16" height="16" viewBox="0 0 16 16" fill="none" xmlns="http://www.w3.org/2000/svg">
<path d="M14.244 12.1772C13.7434 11.6675 13.1584 11.2515 12.516 10.9482C13.422 10.2014 14 9.06188 14 7.784C14 5.52938 12.152 3.6797 9.93599 3.71429C7.754 3.74888 5.99601 5.55787 5.99601 7.784C5.99601 9.06188 6.57601 10.2014 7.48 10.9482C6.83742 11.2512 6.25245 11.6673 5.75201 12.1772C4.66002 13.2903 4.04002 14.7595 4.00002 16.3263C3.99949 16.348 4.00324 16.3696 4.01104 16.3899C4.01884 16.4101 4.03054 16.4285 4.04545 16.4441C4.06036 16.4596 4.07818 16.472 4.09786 16.4804C4.11753 16.4888 4.13867 16.4932 4.16002 16.4932H5.28002C5.36602 16.4932 5.43802 16.424 5.44002 16.3365C5.47802 15.1563 5.94801 14.0513 6.77401 13.213C7.19668 12.7806 7.69944 12.4379 8.25318 12.2046C8.80692 11.9713 9.40064 11.852 9.99999 11.8537C11.218 11.8537 12.364 12.336 13.226 13.213C14.05 14.0513 14.52 15.1563 14.56 16.3365C14.562 16.424 14.634 16.4932 14.72 16.4932H15.84C15.8613 16.4932 15.8824 16.4888 15.9021 16.4804C15.9218 16.472 15.9396 16.4596 15.9545 16.4441C15.9694 16.4285 15.9811 16.4101 15.9889 16.3899C15.9967 16.3696 16.0005 16.348 15.9999 16.3263C15.96 14.7595 15.34 13.2903 14.244 12.1772ZM9.99999 10.3886C9.31599 10.3886 8.672 10.118 8.19 9.62554C7.94811 9.38137 7.75703 9.09013 7.62818 8.76919C7.49932 8.44825 7.43532 8.10419 7.44 7.75754C7.446 7.09011 7.708 6.44506 8.166 5.96687C8.646 5.4663 9.28799 5.18752 9.97399 5.17938C10.652 5.17328 11.31 5.44188 11.794 5.92414C12.29 6.41861 12.562 7.07994 12.562 7.784C12.562 8.47992 12.296 9.1331 11.812 9.62554C11.5745 9.86829 11.2921 10.0607 10.9811 10.1917C10.6701 10.3227 10.3366 10.3896 9.99999 10.3886ZM4.99002 8.3212C4.97202 8.14416 4.96202 7.9651 4.96202 7.784C4.96202 7.46045 4.99202 7.14505 5.04802 6.83779C5.06202 6.76453 5.02402 6.68925 4.95802 6.65872C4.68602 6.5346 4.43602 6.36367 4.22002 6.14797C3.9655 5.89689 3.76522 5.59458 3.63196 5.26034C3.49869 4.9261 3.43537 4.56726 3.44603 4.20673C3.46403 3.55354 3.72203 2.93291 4.17202 2.46489C4.66602 1.95007 5.33002 1.66926 6.03601 1.6774C6.67401 1.68351 7.29 1.93379 7.756 2.37739C7.914 2.52797 8.05 2.69483 8.164 2.8739C8.204 2.93698 8.282 2.96343 8.35 2.93901C8.702 2.81489 9.07399 2.72739 9.45599 2.68669C9.56799 2.67448 9.63199 2.55239 9.58199 2.45065C8.93199 1.14224 7.604 0.238763 6.06801 0.214345C3.85003 0.179752 2.00204 2.02943 2.00204 4.28201C2.00204 5.5599 2.58003 6.69942 3.48603 7.44621C2.85003 7.74533 2.26404 8.15841 1.75604 8.67526C0.660046 9.78833 0.0400498 11.2575 5.00117e-05 12.8264C-0.000483795 12.8481 0.00326024 12.8697 0.0110616 12.8899C0.018863 12.9101 0.0305638 12.9286 0.0454745 12.9441C0.0603853 12.9597 0.0782045 12.972 0.0978819 12.9804C0.117559 12.9889 0.138697 12.9932 0.160049 12.9932H1.28204C1.36804 12.9932 1.44004 12.924 1.44204 12.8365C1.48004 11.6563 1.95004 10.5514 2.77603 9.71304C3.36403 9.11479 4.08402 8.69968 4.87002 8.49823C4.94802 8.47788 5.00002 8.40259 4.99002 8.3212Z" fill="#828FA3"/>
</svg>
