<svg width="32" height="32" viewBox="0 0 32 32" fill="none" xmlns="http://www.w3.org/2000/svg">
<g clip-path="url(#clip0_443_27872)">
<path d="M15.9999 31.9997C24.8363 31.9997 31.9997 24.8363 31.9997 15.9999C31.9997 7.16338 24.8363 0 15.9999 0C7.16338 0 0 7.16338 0 15.9999C0 24.8363 7.16338 31.9997 15.9999 31.9997Z" fill="#808087"/>
<path d="M25.8001 11.4985C25.1145 11.8025 24.3769 12.0082 23.6034 12.1C24.3932 11.6268 24.9992 10.8782 25.2853 9.98459C24.5463 10.423 23.7275 10.741 22.8567 10.9124C22.1591 10.1694 21.1651 9.70508 20.0645 9.70508C17.9528 9.70508 16.2401 11.4178 16.2401 13.5295C16.2401 13.8293 16.274 14.121 16.3396 14.4011C13.1612 14.2417 10.343 12.7192 8.45661 10.4047C8.12748 10.9694 7.93867 11.6268 7.93867 12.3276C7.93867 13.6541 8.61433 14.8252 9.63996 15.5109C9.01335 15.4912 8.42324 15.3192 7.90786 15.032C7.90758 15.0483 7.90758 15.0645 7.90758 15.0805C7.90758 16.9335 9.2264 18.4791 10.9756 18.8302C10.655 18.918 10.3165 18.9645 9.96824 18.9645C9.72124 18.9645 9.48195 18.9408 9.24865 18.8963C9.73522 20.4154 11.1473 21.5212 12.8212 21.5522C11.5121 22.5782 9.86328 23.1894 8.071 23.1894C7.76297 23.1894 7.4578 23.1714 7.15918 23.1357C8.85078 24.2213 10.8615 24.8541 13.0212 24.8541C20.0556 24.8541 23.9026 19.0267 23.9026 13.9724C23.9026 13.8067 23.8989 13.6416 23.8915 13.4779C24.6393 12.9388 25.2876 12.2654 25.8001 11.4985Z" fill="white"/>
</g>
<defs>
<clipPath id="clip0_443_27872">
<rect width="32" height="32" fill="white"/>
</clipPath>
</defs>
</svg>
