<svg width="20" height="21" viewBox="0 0 20 21" fill="none" xmlns="http://www.w3.org/2000/svg">
<path d="M9.1665 17.9997C8.12484 17.9997 7.149 17.8052 6.239 17.4163C5.329 17.0275 4.534 16.4927 3.854 15.8122C3.17345 15.1316 2.63873 14.3363 2.24984 13.4263C1.86095 12.5163 1.6665 11.5408 1.6665 10.4997C1.6665 9.45801 1.86095 8.48217 2.24984 7.57217C2.63873 6.66217 3.17345 5.86717 3.854 5.18717C4.53456 4.50662 5.32984 3.9719 6.23984 3.58301C7.14984 3.19412 8.12539 2.99967 9.1665 2.99967C9.45817 2.99967 9.73928 3.01717 10.0098 3.05217C10.2804 3.08717 10.5548 3.13912 10.8332 3.20801V4.91634C10.5554 4.83301 10.2809 4.77051 10.0098 4.72884C9.73873 4.68717 9.45761 4.66634 9.1665 4.66634C7.52761 4.66634 6.14567 5.22884 5.02067 6.35384C3.89567 7.47884 3.33317 8.86079 3.33317 10.4997C3.33317 12.1386 3.89567 13.5205 5.02067 14.6455C6.14567 15.7705 7.52761 16.333 9.1665 16.333C10.8054 16.333 12.1873 15.7705 13.3123 14.6455C14.4373 13.5205 14.9998 12.1386 14.9998 10.4997C14.9998 10.3469 14.9929 10.208 14.979 10.083C14.9651 9.95801 14.9443 9.81912 14.9165 9.66634H16.6248C16.6526 9.81912 16.6665 9.95801 16.6665 10.083V10.4997C16.6665 11.5413 16.4721 12.5172 16.0832 13.4272C15.6943 14.3372 15.1596 15.1322 14.479 15.8122C13.7984 16.4927 13.0032 17.0275 12.0932 17.4163C11.1832 17.8052 10.2076 17.9997 9.1665 17.9997ZM11.4998 13.9997L8.33317 10.833V6.33301H9.99984V10.1663L12.6665 12.833L11.4998 13.9997ZM14.9998 7.99967V5.49967H12.4998V3.83301H14.9998V1.33301H16.6665V3.83301H19.1665V5.49967H16.6665V7.99967H14.9998Z" fill="#8471F2"/>
</svg>
