<svg width="21" height="21" viewBox="0 0 21 21" fill="none" xmlns="http://www.w3.org/2000/svg">
<path id="Vector" d="M17.3862 2.5H15.3862V1.5C15.3862 1.23478 15.2809 0.98043 15.0933 0.792893C14.9058 0.605357 14.6514 0.5 14.3862 0.5C14.121 0.5 13.8667 0.605357 13.6791 0.792893C13.4916 0.98043 13.3862 1.23478 13.3862 1.5V2.5H7.38623V1.5C7.38623 1.23478 7.28087 0.98043 7.09334 0.792893C6.9058 0.605357 6.65145 0.5 6.38623 0.5C6.12101 0.5 5.86666 0.605357 5.67912 0.792893C5.49159 0.98043 5.38623 1.23478 5.38623 1.5V2.5H3.38623C2.59058 2.5 1.82752 2.81607 1.26491 3.37868C0.702301 3.94129 0.38623 4.70435 0.38623 5.5V17.5C0.38623 18.2956 0.702301 19.0587 1.26491 19.6213C1.82752 20.1839 2.59058 20.5 3.38623 20.5H17.3862C18.1819 20.5 18.9449 20.1839 19.5076 19.6213C20.0702 19.0587 20.3862 18.2956 20.3862 17.5V5.5C20.3862 4.70435 20.0702 3.94129 19.5076 3.37868C18.9449 2.81607 18.1819 2.5 17.3862 2.5ZM18.3862 17.5C18.3862 17.7652 18.2809 18.0196 18.0933 18.2071C17.9058 18.3946 17.6514 18.5 17.3862 18.5H3.38623C3.12101 18.5 2.86666 18.3946 2.67912 18.2071C2.49159 18.0196 2.38623 17.7652 2.38623 17.5V10.5H18.3862V17.5ZM18.3862 8.5H2.38623V5.5C2.38623 5.23478 2.49159 4.98043 2.67912 4.79289C2.86666 4.60536 3.12101 4.5 3.38623 4.5H5.38623V5.5C5.38623 5.76522 5.49159 6.01957 5.67912 6.20711C5.86666 6.39464 6.12101 6.5 6.38623 6.5C6.65145 6.5 6.9058 6.39464 7.09334 6.20711C7.28087 6.01957 7.38623 5.76522 7.38623 5.5V4.5H13.3862V5.5C13.3862 5.76522 13.4916 6.01957 13.6791 6.20711C13.8667 6.39464 14.121 6.5 14.3862 6.5C14.6514 6.5 14.9058 6.39464 15.0933 6.20711C15.2809 6.01957 15.3862 5.76522 15.3862 5.5V4.5H17.3862C17.6514 4.5 17.9058 4.60536 18.0933 4.79289C18.2809 4.98043 18.3862 5.23478 18.3862 5.5V8.5Z" fill="#828FA3"/>
</svg>
