<svg width="24" height="25" viewBox="0 0 24 25" fill="none" xmlns="http://www.w3.org/2000/svg">
<path d="M10.6499 16.2499L15.5249 13.1249C15.7583 12.9749 15.8749 12.7666 15.8749 12.4999C15.8749 12.2333 15.7583 12.0249 15.5249 11.8749L10.6499 8.74992C10.3999 8.58326 10.1456 8.57059 9.88694 8.71192C9.62828 8.85326 9.49928 9.07426 9.49994 9.37492V15.6249C9.49994 15.9249 9.62928 16.1459 9.88794 16.2879C10.1466 16.4299 10.4006 16.4173 10.6499 16.2499ZM3.02494 13.4999C3.30828 13.4999 3.56261 13.5916 3.78794 13.7749C4.01328 13.9583 4.16728 14.1916 4.24994 14.4749C4.34994 14.8583 4.47094 15.2209 4.61294 15.5629C4.75494 15.9049 4.91728 16.2423 5.09994 16.5749C5.24994 16.8249 5.31261 17.0916 5.28794 17.3749C5.26328 17.6583 5.15061 17.8999 4.94994 18.0999C4.76661 18.2833 4.54161 18.3666 4.27494 18.3499C4.00828 18.3333 3.79994 18.2166 3.64994 17.9999C3.28328 17.4833 2.97494 16.9289 2.72494 16.3369C2.47494 15.7449 2.28328 15.1326 2.14994 14.4999C2.09994 14.2333 2.16261 13.9999 2.33794 13.7999C2.51328 13.5999 2.74228 13.4999 3.02494 13.4999ZM4.94994 6.89992C5.14994 7.09992 5.25828 7.34159 5.27494 7.62492C5.29161 7.90826 5.23328 8.16659 5.09994 8.39992C4.91661 8.73326 4.75428 9.07492 4.61294 9.42492C4.47161 9.77492 4.35061 10.1416 4.24994 10.5249C4.16661 10.8083 4.01228 11.0416 3.78694 11.2249C3.56161 11.4083 3.30794 11.4999 3.02594 11.4999C2.74261 11.4999 2.51361 11.3956 2.33894 11.1869C2.16428 10.9783 2.10994 10.7409 2.17594 10.4749C2.30928 9.84159 2.50094 9.22926 2.75094 8.63792C3.00094 8.04659 3.30094 7.49226 3.65094 6.97492C3.80094 6.75826 4.00928 6.64592 4.27594 6.63792C4.54261 6.62992 4.76761 6.71726 4.95094 6.89992H4.94994ZM6.34994 19.5249C6.54994 19.3083 6.79594 19.1916 7.08794 19.1749C7.37994 19.1583 7.65061 19.2249 7.89994 19.3749C8.23328 19.5583 8.57061 19.7249 8.91194 19.8749C9.25328 20.0249 9.60761 20.1499 9.97494 20.2499C10.2583 20.3333 10.4916 20.4833 10.6749 20.6999C10.8583 20.9166 10.9499 21.1666 10.9499 21.4499C10.9499 21.7333 10.8456 21.9583 10.6369 22.1249C10.4283 22.2916 10.1909 22.3499 9.92494 22.2999C9.29161 22.1666 8.69561 21.9749 8.13694 21.7249C7.57828 21.4749 7.03261 21.1833 6.49994 20.8499C6.26661 20.6999 6.13728 20.4916 6.11194 20.2249C6.08661 19.9583 6.16594 19.7249 6.34994 19.5249ZM10.9999 3.54992C10.9999 3.83326 10.9123 4.08326 10.7369 4.29992C10.5616 4.51659 10.3326 4.66659 10.0499 4.74992C9.66661 4.84992 9.29994 4.97092 8.94994 5.11292C8.59994 5.25492 8.25828 5.42559 7.92494 5.62492C7.67494 5.77492 7.40428 5.83759 7.11294 5.81293C6.82161 5.78826 6.57561 5.67559 6.37494 5.47492C6.17494 5.27492 6.08728 5.03759 6.11194 4.76292C6.13661 4.48826 6.26594 4.27559 6.49994 4.12492C7.03328 3.79159 7.58761 3.50392 8.16294 3.26192C8.73828 3.01992 9.34194 2.83259 9.97394 2.69992C10.2406 2.64992 10.4783 2.70826 10.6869 2.87492C10.8956 3.04159 10.9999 3.26659 10.9999 3.54992ZM19.9999 12.4999C19.9999 10.6166 19.4206 8.95392 18.2619 7.51192C17.1033 6.06992 15.6243 5.13259 13.8249 4.69992C13.5749 4.63326 13.3749 4.49159 13.2249 4.27492C13.0749 4.05826 12.9999 3.81659 12.9999 3.54992C12.9999 3.28326 13.0916 3.06259 13.2749 2.88792C13.4583 2.71326 13.6666 2.65059 13.8999 2.69992C16.2333 3.16659 18.1666 4.30826 19.6999 6.12492C21.2333 7.94159 21.9999 10.0666 21.9999 12.4999C21.9999 14.9333 21.2333 17.0583 19.6999 18.8749C18.1666 20.6916 16.2333 21.8333 13.8999 22.2999C13.6666 22.3499 13.4583 22.2873 13.2749 22.1119C13.0916 21.9366 12.9999 21.7159 12.9999 21.4499C12.9999 21.1833 13.0749 20.9416 13.2249 20.7249C13.3749 20.5083 13.5749 20.3666 13.8249 20.2999C15.6249 19.8666 17.1043 18.9289 18.2629 17.4869C19.4216 16.0449 20.0006 14.3826 19.9999 12.4999Z" fill="#FF9898"/>
</svg>
